<svg width="60" height="60" viewBox="0 0 60 60" fill="none" xmlns="http://www.w3.org/2000/svg">
<g id="&#208;&#159;&#208;&#181;&#209;&#128;&#208;&#181;&#208;&#186;&#208;&#187;&#209;&#142;&#209;&#135;&#208;&#181;&#208;&#189;&#208;&#184;&#208;&#181; &#208;&#178;&#208;&#176;&#208;&#187;&#209;&#142;&#209;&#130;" clip-path="url(#clip0_135_345)">
<g id="&#208;&#159;&#208;&#181;&#209;&#128;&#208;&#181;&#208;&#186;&#208;&#187;&#209;&#142;&#209;&#135;&#208;&#181;&#208;&#189;&#208;&#184;&#208;&#181; &#208;&#178;&#208;&#176;&#208;&#187;&#209;&#142;&#209;&#130;_2">
<circle id="Ellipse 2" cx="30" cy="30" r="30" transform="rotate(-90 30 30)" fill="#26278D"/>
<g id="Group">
<path id="Vector" d="M35.2335 28.3228C35.6036 28.3228 35.9637 28.2023 36.2593 27.9796C36.5549 27.7568 36.77 27.4439 36.872 27.0882C36.9741 26.7324 36.9575 26.353 36.8249 26.0075C36.6923 25.6619 36.4508 25.3689 36.1369 25.1728L31.5568 20.591C31.3984 20.4327 31.2105 20.3072 31.0036 20.2216C30.7967 20.136 30.575 20.092 30.3511 20.092C30.1272 20.0921 29.9055 20.1363 29.6987 20.2221C29.4919 20.3078 29.304 20.4334 29.1457 20.5918C28.9875 20.7502 28.862 20.9382 28.7764 21.1451C28.6908 21.3519 28.6467 21.5736 28.6468 21.7975C28.6469 22.0214 28.6911 22.2431 28.7768 22.4499C28.8626 22.6567 28.9882 22.8446 29.1466 23.0029L31.0557 24.912H18.1881C17.736 24.912 17.3024 25.0916 16.9828 25.4112C16.6631 25.7309 16.4835 26.1645 16.4835 26.6165C16.4835 27.0686 16.6631 27.5022 16.9828 27.8218C17.3024 28.1415 17.736 28.3211 18.1881 28.3211L35.1483 28.3211H35.2335V28.3228Z" fill="white"/>
<path id="Vector_2" d="M25.0062 31.6773C24.6361 31.6773 24.2761 31.7978 23.9805 32.0205C23.6849 32.2433 23.4698 32.5562 23.3678 32.9119C23.2657 33.2677 23.2823 33.647 23.4149 33.9926C23.5475 34.3381 23.789 34.6311 24.1028 34.8273L28.683 39.4074C28.8402 39.5702 29.0283 39.7001 29.2362 39.7894C29.4442 39.8787 29.6679 39.9258 29.8942 39.9277C30.1205 39.9297 30.345 39.8866 30.5545 39.8009C30.7639 39.7152 30.9543 39.5886 31.1143 39.4285C31.2744 39.2685 31.4009 39.0782 31.4866 38.8687C31.5723 38.6592 31.6155 38.4348 31.6135 38.2084C31.6115 37.9821 31.5645 37.7584 31.4752 37.5505C31.3858 37.3425 31.256 37.1544 31.0932 36.9972L29.1841 35.0864H42.0517C42.5038 35.0864 42.9373 34.9068 43.257 34.5871C43.5767 34.2675 43.7562 33.8339 43.7562 33.3819C43.7562 32.9298 43.5767 32.4962 43.257 32.1766C42.9373 31.8569 42.5038 31.6773 42.0517 31.6773H25.0915H25.0062Z" fill="white"/>
</g>
</g>
</g>
<defs>
<clipPath id="clip0_135_345">
<rect width="60" height="60" fill="white"/>
</clipPath>
</defs>
</svg>
