<svg width="55" height="50" viewBox="0 0 55 50" fill="none" xmlns="http://www.w3.org/2000/svg">
<g id="&#208;&#155;&#208;&#190;&#208;&#179;&#208;&#190;&#209;&#130;&#208;&#184;&#208;&#191;" clip-path="url(#clip0_10_895)">
<g id="Logo-img">
<path id="Vector" d="M16.3587 0.547438C13.346 0.804914 10.723 1.66746 8.22109 3.2209C5.05694 5.19059 2.46416 8.33179 1.16561 11.7691C0.84963 12.6016 0.750074 12.9149 0.559619 13.6573C-0.288769 16.9529 -0.171899 20.3388 0.9059 23.5486C2.03564 26.9173 4.15661 29.8439 7.03075 32.0024C9.88323 34.148 13.398 35.3925 16.9344 35.5084C17.6616 35.5341 17.7438 35.5298 17.7438 35.4655C17.7438 35.4268 17.7135 35.1865 17.6832 34.9333C17.536 33.8477 17.5101 33.44 17.5101 32.1955C17.5144 30.4533 17.6486 29.2517 18.0208 27.6768C18.2502 26.7113 18.6918 25.3381 19.0121 24.6214C19.0554 24.5142 19.1506 24.2996 19.2155 24.1408L19.3367 23.8533L19.051 24.0464C18.5013 24.4112 17.8953 24.6515 17.1248 24.8102L16.6833 24.9004L16.6703 25.6642L16.6617 26.4238H15.7311H14.8004V25.6342V24.8489L14.4671 24.7931C13.108 24.5785 11.8397 23.7632 11.3203 22.7762C10.948 22.0638 10.7792 21.2356 10.7446 19.9311L10.7186 19.0428H12.7617H14.8004V19.9311C14.8048 21.1155 14.861 21.8664 14.9649 22.1025C15.0645 22.3213 15.2592 22.4329 15.5449 22.4329C16.047 22.4286 16.3067 22.1068 16.3457 21.433C16.376 20.9181 16.2938 19.9139 16.1899 19.5449C16.0297 18.9741 15.7657 18.7209 14.3979 17.8498C13.043 16.9787 12.5366 16.6225 12.1557 16.262C11.4415 15.5883 10.9307 14.6185 10.7489 13.5886C10.6537 13.0393 10.684 11.9622 10.8139 11.4558C11.1082 10.2972 11.8181 9.49902 12.9824 9.00981C13.4066 8.82958 14.1122 8.64505 14.5537 8.59356L14.8004 8.56352V7.92412V7.28901L15.7311 7.27614L16.6617 7.26327L16.6703 7.90267L16.6833 8.54635L17.1595 8.64076C19.09 9.02698 20.1202 10.0569 20.3842 11.8549C20.4318 12.1982 20.4405 12.8848 20.4015 13.1809L20.3712 13.3783H18.3455H16.3154V12.6574C16.3111 11.885 16.2505 11.4 16.1249 11.2155C16.0211 11.0525 15.783 10.9623 15.5233 10.9881C15.2549 11.0095 15.1077 11.1168 14.9736 11.3872C14.874 11.5803 14.8654 11.6446 14.8654 12.1553C14.8654 12.5759 14.887 12.7775 14.9433 12.9664C15.0861 13.4212 15.4843 13.7388 17.3542 14.8803C19.4492 16.1591 19.8388 16.4938 20.3106 17.4035C20.7305 18.2146 20.8863 19.0428 20.843 20.2229C20.8257 20.622 20.8041 21.0296 20.7911 21.1241C20.7651 21.2914 20.7738 21.2871 21.0335 20.9095C23.0246 18.0601 25.6563 15.7943 28.7599 14.2494C30.1883 13.5371 32.253 12.8462 33.8459 12.5415C34.0493 12.5072 34.2571 12.4643 34.309 12.4557L34.4043 12.4342L34.3047 12.1424C34.0407 11.3743 33.5689 10.3487 33.1144 9.53764C30.6904 5.24208 26.6302 2.16953 21.8343 1.0066C21.146 0.839243 20.4015 0.706213 19.5834 0.611807C18.9125 0.530272 16.9993 0.495943 16.3587 0.547438Z" fill="#26278D"/>
<path id="Vector_2" d="M34.1571 2.17626V3.28689L34.4063 3.3348C35.979 3.66581 37.079 4.46721 37.9856 5.9524C38.1747 6.26163 38.6688 7.21546 38.6688 7.27208C38.6688 7.28515 38.1145 7.28079 37.4356 7.26773C36.3872 7.24595 36.2067 7.25031 36.2282 7.30257C36.2411 7.33741 37.0016 8.60919 37.9169 10.1292C38.8364 11.6493 39.6485 12.9994 39.7216 13.1257L39.8591 13.3566L41.7497 10.3601L43.636 7.36355L42.622 7.33741C42.0677 7.31999 41.4661 7.30693 41.2856 7.30257L40.9548 7.29822L40.77 6.82783C39.6141 3.89665 38.093 2.2416 35.8544 1.48376C35.4419 1.34438 34.3634 1.07435 34.213 1.06999C34.17 1.06999 34.1571 1.31825 34.1571 2.17626Z" fill="#26278D"/>
<path id="Vector_3" d="M36.4527 14.9736C33.9761 15.0979 31.8412 15.6383 29.6936 16.6804C26.2423 18.3572 23.3607 21.2648 21.6645 24.7857C20.8334 26.5183 20.2975 28.3709 20.0317 30.4465C19.9136 31.3729 19.9262 33.6672 20.0528 34.6107C20.5971 38.6848 22.2974 42.1714 25.1116 44.9675C28.5544 48.3897 33.1618 50.1737 37.959 49.9336C41.9545 49.7363 45.621 48.2139 48.6208 45.4992C49.9878 44.2599 51.1692 42.776 52.1143 41.1035C54.2618 37.3082 54.9031 32.6294 53.8737 28.3323C52.5193 22.6929 48.5111 18.0956 43.1823 16.0671C41.0601 15.2566 38.6214 14.8621 36.4527 14.9736ZM39.2163 23.1089C39.5285 23.1689 39.9631 23.2719 40.1782 23.3405L40.5664 23.4605V25.5105C40.5664 26.6426 40.558 27.5732 40.5495 27.5861C40.5369 27.5947 40.3597 27.5175 40.1487 27.406C39.6635 27.153 39.0095 26.93 38.4779 26.8399C37.9758 26.7584 37.0012 26.7799 36.5371 26.8828C35.2081 27.183 34.0309 27.9463 33.2377 29.0313L33.0141 29.3315L36.8029 29.353L40.5875 29.3744V30.245V31.1113L36.4316 31.1241L32.28 31.1327L32.2462 31.2828C32.1534 31.7288 32.1239 32.2906 32.1703 32.7709C32.1956 33.0497 32.2251 33.3113 32.2378 33.3627C32.2589 33.4485 32.2673 33.4485 36.4232 33.4485H40.5875V34.3277V35.2068L36.7565 35.2197L32.9255 35.2282L33.1491 35.5585C33.4613 36.0259 34.0984 36.6606 34.5625 36.978C35.5245 37.6255 36.4991 37.93 37.6257 37.93C38.5961 37.93 39.499 37.6941 40.2964 37.2396C40.423 37.1667 40.5369 37.1152 40.5495 37.1238C40.558 37.1366 40.5664 38.0715 40.5664 39.1994L40.5706 41.2536L40.0939 41.3951C39.3218 41.6224 38.7733 41.7082 37.921 41.7339C37.0603 41.7597 36.4527 41.7125 35.7186 41.5538C33.3137 41.0349 31.2547 39.5811 29.8497 37.4154C29.5586 36.9608 29.1198 36.0688 28.9426 35.5585L28.8245 35.2282H27.6094H26.39V34.3277V33.4314H27.4153L28.4363 33.4271L28.4279 33.3327C28.4026 33.0325 28.4068 31.7674 28.4321 31.4629L28.4658 31.107L27.4279 31.1198L26.39 31.1327V30.2407V29.353H27.6304H28.8709L28.9468 29.1471C29.7611 26.9042 31.3855 25.0559 33.5077 23.958C34.3769 23.512 35.4697 23.1604 36.3261 23.0531C36.5371 23.0274 36.7523 22.9974 36.8114 22.9888C36.8704 22.9759 37.305 22.9759 37.7818 22.9845C38.499 22.9931 38.7437 23.0145 39.2163 23.1089Z" fill="#26278D"/>
<path id="Vector_4" d="M13.4032 40.6649C12.3762 42.2982 11.5298 43.6484 11.5212 43.6702C11.5126 43.692 11.8434 43.7094 12.2946 43.7137C12.7286 43.7181 13.3301 43.7311 13.6309 43.7486L14.1852 43.7747L14.3743 44.2538C14.9887 45.8043 15.745 47.0325 16.6301 47.9254C17.6055 48.9054 18.8216 49.5325 20.4157 49.8723C20.695 49.9332 20.9313 49.9811 20.9442 49.9811C20.9571 49.9811 20.9657 49.4846 20.9657 48.8749V47.773L20.5274 47.6641C19.3887 47.381 18.5594 46.8757 17.8075 46.009C17.3778 45.5125 16.8579 44.6676 16.5657 44.0012L16.454 43.7442L17.7087 43.7747L18.9633 43.8095L18.8989 43.705C18.8602 43.6484 18.0438 42.2895 17.077 40.6824C16.1145 39.0752 15.311 37.7512 15.2981 37.7338C15.2809 37.7163 14.4301 39.036 13.4032 40.6649Z" fill="#26278D"/>
</g>
</g>
<defs>
<clipPath id="clip0_10_895">
<rect width="55" height="50" fill="white"/>
</clipPath>
</defs>
</svg>
